<svg width="634" height="893" xmlns="http://www.w3.org/2000/svg" xmlns:xlink="http://www.w3.org/1999/xlink" overflow="hidden"><g><rect x="0" y="0" width="634" height="892.697" fill="#FFFFFF"/><rect x="206.5" y="3.49882" width="183" height="38.9868" stroke="#000000" stroke-width="1.00053" stroke-linejoin="round" stroke-miterlimit="10" fill="#FFF2CC"/><text font-family="Calibri,Calibri_MSFontService,sans-serif" font-weight="400" font-size="24" transform="matrix(1 0 0 0.999661 216.649 30)">Training samples</text><rect x="132.5" y="71.4757" width="58.9999" height="38.9868" stroke="#000000" stroke-width="1.00053" stroke-linejoin="round" stroke-miterlimit="10" fill="#FFF2CC"/><text font-family="Calibri,Calibri_MSFontService,sans-serif" font-weight="400" font-size="24" transform="matrix(1 0 0 0.999661 141.676 98)">Text</text><rect x="395.5" y="71.4757" width="80" height="38.9868" stroke="#000000" stroke-width="1.00053" stroke-linejoin="round" stroke-miterlimit="10" fill="#FFF2CC"/><text font-family="Calibri,Calibri_MSFontService,sans-serif" font-weight="400" font-size="24" transform="matrix(1 0 0 0.999661 405.452 98)">Image</text><rect x="55.5" y="125.457" width="213" height="38.9868" stroke="#000000" stroke-width="1.00053" stroke-linejoin="round" stroke-miterlimit="10" fill="#E2F0D9"/><text font-family="Calibri,Calibri_MSFontService,sans-serif" font-weight="400" font-size="24" transform="matrix(1 0 0 0.999661 65.7724 152)">Text transformation</text><rect x="319.5" y="125.457" width="233" height="38.9868" stroke="#000000" stroke-width="1.00053" stroke-linejoin="round" stroke-miterlimit="10" fill="#E2F0D9"/><text font-family="Calibri,Calibri_MSFontService,sans-serif" font-weight="400" font-size="24" transform="matrix(1 0 0 0.999661 329.549 152)">Image transformation</text><rect x="87.5" y="179.439" width="149" height="38.9867" stroke="#000000" stroke-width="1.00053" stroke-linejoin="round" stroke-miterlimit="10" fill="#FFF2CC"/><text font-family="Calibri,Calibri_MSFontService,sans-serif" font-weight="400" font-size="24" transform="matrix(1 0 0 0.999661 97.4824 206)">encoded text</text><rect x="350.5" y="179.439" width="171" height="38.9867" stroke="#000000" stroke-width="1.00053" stroke-linejoin="round" stroke-miterlimit="10" fill="#FFF2CC"/><text font-family="Calibri,Calibri_MSFontService,sans-serif" font-weight="400" font-size="24" transform="matrix(1 0 0 0.999661 360.612 206)">encoded image</text><rect x="25.5" y="233.421" width="273" height="67.977" stroke="#000000" stroke-width="1.00053" stroke-linejoin="round" stroke-miterlimit="10" fill="#E2F0D9"/><text font-family="Calibri,Calibri_MSFontService,sans-serif" font-weight="400" font-size="24" transform="matrix(1 0 0 0.999661 74.8637 260)">Language module</text><text font-family="Calibri,Calibri_MSFontService,sans-serif" font-weight="400" font-size="24" transform="matrix(1 0 0 0.999661 36.09 289)">[BERT/RoBERTa/DeBERTa]</text><rect x="327.5" y="233.421" width="217" height="67.977" stroke="#000000" stroke-width="1.00053" stroke-linejoin="round" stroke-miterlimit="10" fill="#E2F0D9"/><text font-family="Calibri,Calibri_MSFontService,sans-serif" font-weight="400" font-size="24" transform="matrix(1 0 0 0.999661 365.581 260)">Vision module</text><text font-family="Calibri,Calibri_MSFontService,sans-serif" font-weight="400" font-size="24" transform="matrix(1 0 0 0.999661 337.82 289)">[Resnet152/VGG16]</text><rect x="89.5" y="316.393" width="144" height="38.9867" stroke="#000000" stroke-width="1.00053" stroke-linejoin="round" stroke-miterlimit="10" fill="#FFF2CC"/><text font-family="Calibri,Calibri_MSFontService,sans-serif" font-weight="400" font-size="24" transform="matrix(1 0 0 0.999661 99.7835 343)">text features</text><rect x="353.5" y="316.393" width="165" height="38.9867" stroke="#000000" stroke-width="1.00053" stroke-linejoin="round" stroke-miterlimit="10" fill="#FFF2CC"/><text font-family="Calibri,Calibri_MSFontService,sans-serif" font-weight="400" font-size="24" transform="matrix(1 0 0 0.999661 362.913 343)">image features</text><rect x="216.5" y="383.37" width="163" height="38.9868" stroke="#000000" stroke-width="1.00053" stroke-linejoin="round" stroke-miterlimit="10" fill="#E2F0D9"/><text font-family="Calibri,Calibri_MSFontService,sans-serif" font-weight="400" font-size="24" transform="matrix(1 0 0 0.999661 226.781 409)">Concatenation</text><rect x="194.5" y="435.352" width="207" height="38.9867" stroke="#000000" stroke-width="1.00053" stroke-linejoin="round" stroke-miterlimit="10" fill="#FFF2CC"/><text font-family="Calibri,Calibri_MSFontService,sans-serif" font-weight="400" font-size="24" transform="matrix(1 0 0 0.999661 204.886 461)">Combined features</text><rect x="229.5" y="487.335" width="138" height="38.9868" stroke="#000000" stroke-width="1.00053" stroke-linejoin="round" stroke-miterlimit="10" fill="#E2F0D9"/><text font-family="Calibri,Calibri_MSFontService,sans-serif" font-weight="400" font-size="24" transform="matrix(1 0 0 0.999661 238.874 513)">Linear Layer</text><rect x="218.5" y="539.317" width="160" height="38.9867" stroke="#000000" stroke-width="1.00053" stroke-linejoin="round" stroke-miterlimit="10" fill="#E2F0D9"/><text font-family="Calibri,Calibri_MSFontService,sans-serif" font-weight="400" font-size="24" transform="matrix(1 0 0 0.999661 228.229 565)">Dropout Layer</text><rect x="229.5" y="591.299" width="138" height="38.9868" stroke="#000000" stroke-width="1.00053" stroke-linejoin="round" stroke-miterlimit="10" fill="#E2F0D9"/><text font-family="Calibri,Calibri_MSFontService,sans-serif" font-weight="400" font-size="24" transform="matrix(1 0 0 0.999661 238.874 617)">Linear Layer</text><rect x="259.5" y="643.282" width="77" height="38.9868" stroke="#000000" stroke-width="1.00053" stroke-linejoin="round" stroke-miterlimit="10" fill="#FFF2CC"/><text font-family="Calibri,Calibri_MSFontService,sans-serif" font-weight="400" font-size="24" transform="matrix(1 0 0 0.999661 269.27 669)">Logits</text><rect x="219.5" y="695.264" width="158" height="38.9867" stroke="#000000" stroke-width="1.00053" stroke-linejoin="round" stroke-miterlimit="10" fill="#E2F0D9"/><text font-family="Calibri,Calibri_MSFontService,sans-serif" font-weight="400" font-size="24" transform="matrix(1 0 0 0.999661 228.395 721)">SoftMax Layer</text><rect x="233.5" y="747.246" width="129" height="38.9868" stroke="#000000" stroke-width="1.00053" stroke-linejoin="round" stroke-miterlimit="10" fill="#FFF2CC"/><text font-family="Calibri,Calibri_MSFontService,sans-serif" font-weight="400" font-size="24" transform="matrix(1 0 0 0.999661 243.33 773)">Predictions</text><rect x="196.5" y="799.229" width="204" height="38.9867" stroke="#000000" stroke-width="1.00053" stroke-linejoin="round" stroke-miterlimit="10" fill="#E2F0D9"/><text font-family="Calibri,Calibri_MSFontService,sans-serif" font-weight="400" font-size="24" transform="matrix(1 0 0 0.999661 206.461 825)">Cross</text><text font-family="Calibri,Calibri_MSFontService,sans-serif" font-weight="400" font-size="24" transform="matrix(1 0 0 0.999661 258.601 825)">-</text><text font-family="Calibri,Calibri_MSFontService,sans-serif" font-weight="400" font-size="24" transform="matrix(1 0 0 0.999661 265.939 825)">Entropy Loss</text><rect x="537.5" y="71.4757" width="71.9999" height="38.9868" stroke="#000000" stroke-width="1.00053" stroke-linejoin="round" stroke-miterlimit="10" fill="#FFF2CC"/><text font-family="Calibri,Calibri_MSFontService,sans-serif" font-weight="400" font-size="24" transform="matrix(1 0 0 0.999661 547.02 98)">Label</text><path d="M298.143 42.4857 298.143 57.2369 161.5 57.2369 161.833 56.9035 161.833 64.6534 161.166 64.6534 161.166 56.5701 297.809 56.5701 297.476 56.9035 297.476 42.4857ZM165.502 63.3198 161.5 71.3213 157.498 63.3198Z" fill="#4472C4"/><path d="M0-0.333396 14.7513-0.333396 14.7513 137.536 14.4179 137.203 22.1677 137.203 22.1677 137.87 14.0845 137.87 14.0845 0 14.4179 0.333396 0 0.333396ZM20.8341 133.535 28.8356 137.536 20.8341 141.537Z" fill="#4472C4" transform="matrix(1.83759e-16 1 1.00034 -1.83697e-16 298.5 42.4856)"/><path d="M6.80505e-07-0.333396 8.5742-0.333378 8.5742 0.333413-6.80505e-07 0.333396ZM7.24067-4.00075 15.2421 0.000105006 7.24056 4.00075Z" fill="#4472C4" transform="matrix(1.83759e-16 1 1.00034 -1.83697e-16 161.5 110.462)"/><path d="M435.834 110.462 435.834 119.037 435.167 119.037 435.167 110.462ZM439.502 117.703 435.5 125.705 431.498 117.703Z" fill="#4472C4"/><path d="M161.834 164.444 161.834 173.018 161.167 173.018 161.167 164.444ZM165.502 171.685 161.5 179.686 157.498 171.685Z" fill="#4472C4"/><path d="M0.333396-2.29684e-06 0.333455 8.5742-0.333337 8.5742-0.333396 2.29684e-06ZM4.0008 7.24059 0.000105006 15.2421-4.0007 7.24064Z" fill="#4472C4" transform="matrix(-1.00034 0 0 1 161.5 218.426)"/><path d="M435.834 164.444 435.834 173.018 435.167 173.018 435.167 164.444ZM439.502 171.685 435.5 179.686 431.498 171.685Z" fill="#4472C4"/><path d="M0.333396-2.29684e-06 0.333455 8.5742-0.333337 8.5742-0.333396 2.29684e-06ZM4.0008 7.24059 0.000105006 15.2421-4.0007 7.24064Z" fill="#4472C4" transform="matrix(-1.00034 0 0 1 435.5 218.426)"/><path d="M435.834 301.398 435.834 309.972 435.167 309.972 435.167 301.398ZM439.502 308.638 435.5 316.64 431.498 308.638Z" fill="#4472C4"/><path d="M161.834 301.398 161.834 309.972 161.167 309.972 161.167 301.398ZM165.502 308.638 161.5 316.64 157.498 308.638Z" fill="#4472C4"/><path d="M0.333396-2.64057e-06 0.333448 6.5901-0.333343 6.5901-0.333396 2.64057e-06ZM4.00079 5.25649 0.000105006 13.258-4.00071 5.25655Z" fill="#4472C4" transform="matrix(-1.00034 0 0 1 298.5 422.357)"/><path d="M298.834 474.339 298.834 480.929 298.167 480.929 298.167 474.339ZM302.502 479.596 298.5 487.597 294.498 479.596Z" fill="#4472C4"/><path d="M298.834 526.321 298.834 532.911 298.167 532.911 298.167 526.321ZM302.502 531.578 298.5 539.579 294.498 531.578Z" fill="#4472C4"/><path d="M0.333396-2.64057e-06 0.333448 6.5901-0.333343 6.5901-0.333396 2.64057e-06ZM4.00079 5.25649 0.000105006 13.258-4.00071 5.25655Z" fill="#4472C4" transform="matrix(-1.00034 0 0 1 298.5 578.304)"/><path d="M298.834 630.286 298.834 636.876 298.167 636.876 298.167 630.286ZM302.502 635.543 298.5 643.544 294.498 635.543Z" fill="#4472C4"/><path d="M298.834 682.269 298.834 688.859 298.167 688.859 298.167 682.269ZM302.502 687.525 298.5 695.527 294.498 687.525Z" fill="#4472C4"/><path d="M298.834 734.251 298.834 740.841 298.167 740.841 298.167 734.251ZM302.502 739.507 298.5 747.509 294.498 739.507Z" fill="#4472C4"/><path d="M298.834 786.233 298.834 792.823 298.167 792.823 298.167 786.233ZM302.502 791.49 298.5 799.491 294.498 791.49Z" fill="#4472C4"/><path d="M0-0.333396 14.2414-0.333396 14.2414 136.263 13.908 135.93 21.1479 135.93 21.1479 136.596 13.5746 136.596 13.5746 0 13.908 0.333396 0 0.333396ZM19.8143 132.262 27.8158 136.263 19.8143 140.264Z" fill="#4472C4" transform="matrix(1.83759e-16 1 1.00034 -1.83697e-16 161.5 355.379)"/><path d="M436.416 355.379 436.416 369.621 298.5 369.621 298.833 369.287 298.833 376.527 298.166 376.527 298.166 368.954 436.083 368.954 435.749 369.287 435.749 355.379ZM302.502 375.194 298.5 383.195 294.498 375.194Z" fill="#4472C4"/><path d="M0-0.333396 14.7513-0.333396 14.7513 275.072 14.4179 274.739 22.1676 274.739 22.1676 275.406 14.0845 275.406 14.0845 0 14.4179 0.333396 0 0.333396ZM20.834 271.071 28.8355 275.072 20.834 279.073Z" fill="#4472C4" transform="matrix(1.83759e-16 1 1.00034 -1.83697e-16 298.5 42.4857)"/><path d="M574.083 110.462 574.083 819.509 407.17 819.509 407.17 818.842 573.75 818.842 573.417 819.176 573.417 110.462ZM408.504 823.176 400.5 819.176 408.504 815.175Z" fill="#4472C4"/><rect x="268.5" y="851.211" width="60.9999" height="38.9868" stroke="#000000" stroke-width="1.00053" stroke-linejoin="round" stroke-miterlimit="10" fill="#FFF2CC"/><text font-family="Calibri,Calibri_MSFontService,sans-serif" font-weight="400" font-size="24" transform="matrix(1 0 0 0.999661 277.715 877)">Loss</text><path d="M298.833 838.198 299.177 844.797 298.511 844.832 298.167 838.233ZM302.771 843.275 299.19 851.473 294.778 843.691Z" fill="#4472C4"/><rect x="25.5" y="555.312" width="163" height="132.955" stroke="#000000" stroke-width="1.00053" stroke-linejoin="round" stroke-miterlimit="10" fill="none"/><text font-family="Calibri,Calibri_MSFontService,sans-serif" font-weight="400" font-size="24" transform="matrix(1 0 0 0.999661 71.3414 581)">Legend</text><rect x="33.5" y="595.298" width="148" height="38.9868" stroke="#000000" stroke-width="1.00053" stroke-linejoin="round" stroke-miterlimit="10" fill="#FFF2CC"/><text font-family="Calibri,Calibri_MSFontService,sans-serif" font-weight="400" font-size="24" transform="matrix(1 0 0 0.999661 84.1745 622)">Data</text><rect x="33.5" y="643.282" width="148" height="38.9868" stroke="#000000" stroke-width="1.00053" stroke-linejoin="round" stroke-miterlimit="10" fill="#E2F0D9"/><text font-family="Calibri,Calibri_MSFontService,sans-serif" font-weight="400" font-size="24" transform="matrix(1 0 0 0.999661 42.9028 669)">Computation</text></g></svg>